<svg id="Component_9_3" data-name="Component 9 – 3" xmlns="http://www.w3.org/2000/svg" width="107.247" height="150.36" viewBox="0 0 107.247 150.36">
  <path id="Path_100" data-name="Path 100" d="M54.29-529.029l1.748,13.118a2.585,2.585,0,0,0,.735,1.487,2.587,2.587,0,0,0,1.487.735l13.118,1.748L58.26-510.193a2.586,2.586,0,0,0-1.487.735,2.587,2.587,0,0,0-.735,1.487L54.29-494.853l-1.748-13.118a2.587,2.587,0,0,0-.735-1.487,2.586,2.586,0,0,0-1.487-.735L37.2-511.941l13.118-1.748a2.587,2.587,0,0,0,1.487-.735,2.586,2.586,0,0,0,.735-1.487Z" transform="translate(-37.201 545.224)" fill="#00fff3"/>
  <path id="Path_101" data-name="Path 101" d="M173.545-459.029l1.19,8.927a1.761,1.761,0,0,0,.5,1.012,1.761,1.761,0,0,0,1.012.5l8.927,1.189-8.927,1.19a1.761,1.761,0,0,0-1.012.5,1.761,1.761,0,0,0-.5,1.012l-1.19,8.927-1.189-8.927a1.761,1.761,0,0,0-.5-1.012,1.761,1.761,0,0,0-1.012-.5l-8.927-1.19,8.927-1.189a1.761,1.761,0,0,0,1.012-.5,1.761,1.761,0,0,0,.5-1.012Z" transform="translate(-129.857 493.217)" fill="#812ae9"/>
  <path id="Path_102" data-name="Path 102" d="M290.774-504.791l1.111,8.335a1.644,1.644,0,0,0,.467.945,1.643,1.643,0,0,0,.945.467l8.335,1.111-8.335,1.11a1.643,1.643,0,0,0-.945.467,1.643,1.643,0,0,0-.467.945l-1.111,8.335-1.111-8.335a1.643,1.643,0,0,0-.467-.945,1.644,1.644,0,0,0-.945-.467l-8.335-1.11,8.335-1.111a1.644,1.644,0,0,0,.945-.467,1.644,1.644,0,0,0,.467-.945Z" transform="translate(-217.525 527.216)" fill="#00fff3"/>
  <path id="Path_103" data-name="Path 103" d="M218.913-542.314l.921,6.907a1.36,1.36,0,0,0,.387.783,1.362,1.362,0,0,0,.783.387l6.907.92L221-532.4a1.363,1.363,0,0,0-.783.387,1.361,1.361,0,0,0-.387.783l-.921,6.907-.92-6.907a1.362,1.362,0,0,0-.387-.783,1.363,1.363,0,0,0-.783-.387l-6.907-.92,6.907-.92a1.362,1.362,0,0,0,.783-.387,1.361,1.361,0,0,0,.387-.783Z" transform="translate(-165.519 555.093)" fill="#00fff3"/>
  <path id="Path_104" data-name="Path 104" d="M147.689-592.029l.8,5.967a1.175,1.175,0,0,0,.334.676,1.174,1.174,0,0,0,.676.334l5.967.8-5.967.8a1.175,1.175,0,0,0-.676.334,1.174,1.174,0,0,0-.334.676l-.8,5.967-.8-5.967a1.174,1.174,0,0,0-.334-.676,1.175,1.175,0,0,0-.676-.334l-5.967-.8,5.967-.8a1.174,1.174,0,0,0,.676-.334,1.175,1.175,0,0,0,.334-.676Z" transform="translate(-113.513 592.029)" fill="#812ae9" opacity="0"/>
  <path id="Path_110" data-name="Path 110" d="M117.571-235.216a1.6,1.6,0,0,1,1,2.025,1.6,1.6,0,0,1-2.025,1,1.6,1.6,0,0,1-1-2.025A1.6,1.6,0,0,1,117.571-235.216Z" transform="translate(-95.344 327)" fill="#fff"/>
  <g id="Group_54" data-name="Group 54" transform="translate(6.071 0)">
    <g id="Group_53" data-name="Group 53">
      <path id="Path_105" data-name="Path 105" d="M59.274-333.078,71.829-370,104.4-358.922,91.849-322a17.211,17.211,0,0,1-21.826,10.749A17.211,17.211,0,0,1,59.274-333.078Z" transform="translate(-48.988 427.073)" fill="#00fff3"/>
      <path id="Path_106" data-name="Path 106" d="M92.645-257.376a13.047,13.047,0,0,1,8.148,16.545,13.047,13.047,0,0,1-16.545,8.148A13.047,13.047,0,0,1,76.1-249.228,13.047,13.047,0,0,1,92.645-257.376Z" transform="translate(-61.653 343.918)" fill="#6a0ed6"/>
      <path id="Path_107" data-name="Path 107" d="M109.15-287.826l-24.694-8.4-6.343,18.652,24.694,8.4Z" transform="translate(-63.667 372.262)" fill="#6a0ed6"/>
      <path id="Path_108" data-name="Path 108" d="M142.259-253.614a1.6,1.6,0,0,1,1,2.025,1.6,1.6,0,0,1-2.025,1,1.6,1.6,0,0,1-1-2.025A1.6,1.6,0,0,1,142.259-253.614Z" transform="translate(-109.757 340.669)" fill="#fff"/>
      <path id="Path_109" data-name="Path 109" d="M125.924-205.578a1.6,1.6,0,0,1,1,2.025,1.6,1.6,0,0,1-2.025,1,1.6,1.6,0,0,1-1-2.025A1.6,1.6,0,0,1,125.924-205.578Z" transform="translate(-97.621 304.981)" fill="#fff"/>
      <path id="Path_111" data-name="Path 111" d="M76.094-149.089l-4.247-1.444L61.582-120.346l4.247,1.444Z" transform="translate(-51.385 264.022)" fill="#00fff3"/>
      <path id="Path_112" data-name="Path 112" d="M46.191-42.692a1.041,1.041,0,0,0-.65-1.32L23.962-51.35a1.041,1.041,0,0,0-1.32.65l-.67,1.97a1.041,1.041,0,0,0,.65,1.32L44.2-40.072a1.041,1.041,0,0,0,1.32-.65Z" transform="translate(-21.916 190.376)" fill="#00fff3"/>
      <path id="Path_113" data-name="Path 113" d="M87.415-356.053,76.4-323.659c-2.479,7.291.6,15.055,6.909,18.172a13.286,13.286,0,0,1-1.685-.453c-7.385-2.511-11.2-10.953-8.521-18.84l11.016-32.394Z" transform="translate(-59.308 417.545)" fill="#fff"/>
      <path id="Path_202" data-name="Path 202" d="M142.259-253.614a1.6,1.6,0,0,1,1,2.025,1.6,1.6,0,0,1-2.025,1,1.6,1.6,0,0,1-1-2.025A1.6,1.6,0,0,1,142.259-253.614Z" transform="translate(-115.492 345.039)" fill="#fff"/>
    </g>
    <path id="Path_114" data-name="Path 114" d="M129.891-352.063l-15.028-5.111-1.236,3.635,15.028,5.111Z" transform="translate(-90.052 417.545)" fill="#fff"/>
  </g>
  <g id="Group_52" data-name="Group 52" transform="translate(6.071 0)">
    <path id="Path_115" data-name="Path 115" d="M217.4-320.7,206.53-358.153l33.043-9.589,10.868,37.453a17.212,17.212,0,0,1-11.727,21.316A17.212,17.212,0,0,1,217.4-320.7Z" transform="translate(-159.074 425.396)" fill="#00fff3"/>
    <path id="Path_116" data-name="Path 116" d="M271.011-256.161a13.048,13.048,0,0,1,16.159,8.89,13.048,13.048,0,0,1-8.89,16.159A13.047,13.047,0,0,1,262.121-240,13.047,13.047,0,0,1,271.011-256.161Z" transform="translate(-199.989 342.883)" fill="#6a0ed6"/>
    <path id="Path_117" data-name="Path 117" d="M267.312-293.679l-25.049,7.269,5.49,18.92,25.049-7.269Z" transform="translate(-185.622 370.371)" fill="#6a0ed6"/>
    <path id="Path_118" data-name="Path 118" d="M300.839-256.578a1.6,1.6,0,0,1,1.978,1.088,1.6,1.6,0,0,1-1.088,1.978,1.6,1.6,0,0,1-1.978-1.088A1.6,1.6,0,0,1,300.839-256.578Z" transform="translate(-228.285 342.854)" fill="#fff"/>
    <path id="Path_119" data-name="Path 119" d="M314.979-207.851a1.6,1.6,0,0,1,1.977,1.088,1.6,1.6,0,0,1-1.088,1.978,1.6,1.6,0,0,1-1.978-1.088A1.6,1.6,0,0,1,314.979-207.851Z" transform="translate(-238.79 306.653)" fill="#fff"/>
    <path id="Path_120" data-name="Path 120" d="M291.149-227.353a1.6,1.6,0,0,1,1.978,1.088,1.6,1.6,0,0,1-1.088,1.978,1.6,1.6,0,0,1-1.978-1.088A1.6,1.6,0,0,1,291.149-227.353Z" transform="translate(-221.086 321.142)" fill="#fff"/>
    <path id="Path_121" data-name="Path 121" d="M329.016-150.139l-4.308,1.25,8.886,30.621,4.308-1.25Z" transform="translate(-246.874 263.729)" fill="#00fff3"/>
    <path id="Path_122" data-name="Path 122" d="M343.934-46.93a1.041,1.041,0,0,0-1.289-.709l-21.89,6.352A1.041,1.041,0,0,0,320.045-40l.58,2a1.041,1.041,0,0,0,1.289.709l21.89-6.352a1.041,1.041,0,0,0,.709-1.289Z" transform="translate(-243.379 187.609)" fill="#00fff3"/>
    <path id="Path_123" data-name="Path 123" d="M223.5-328.093l9.536,32.86c2.146,7.4,9.116,12,16.076,10.933a13.362,13.362,0,0,1-1.64.594c-7.491,2.174-15.458-2.557-17.779-10.557l-9.535-32.86Z" transform="translate(-169.2 395.939)" fill="#fff"/>
    <path id="Path_124" data-name="Path 124" d="M235.4-341.528,220.159-337.1l1.07,3.687,15.244-4.424Z" transform="translate(-169.2 405.921)" fill="#fff"/>
  </g>
</svg>
