<svg id="phone" xmlns="http://www.w3.org/2000/svg" width="19.958" height="20" viewBox="0 0 19.958 20">
  <g id="Group_5" data-name="Group 5">
    <path id="Path_8" data-name="Path 8" d="M19.974,14.678l-2.791-2.791a1.856,1.856,0,0,0-3.09.7,1.9,1.9,0,0,1-2.193,1.2A8.607,8.607,0,0,1,6.716,8.6,1.807,1.807,0,0,1,7.912,6.4a1.856,1.856,0,0,0,.7-3.09L5.819.523a1.991,1.991,0,0,0-2.691,0L1.234,2.417c-1.894,1.994.2,7.277,4.884,11.962s9.968,6.878,11.962,4.884l1.894-1.894A1.991,1.991,0,0,0,19.974,14.678Z" transform="translate(-0.539 0)" fill="#00fff3"/>
  </g>
</svg>
