<svg id="Component_8_3" data-name="Component 8 – 3" xmlns="http://www.w3.org/2000/svg" width="294.739" height="322.252" viewBox="0 0 294.739 322.252">
  <path id="Path_138" data-name="Path 138" d="M248.384-494l1.526,11.454a2.257,2.257,0,0,0,.641,1.3,2.261,2.261,0,0,0,1.3.641l11.454,1.526-11.454,1.526a2.258,2.258,0,0,0-1.3.642,2.257,2.257,0,0,0-.641,1.3l-1.526,11.454-1.527-11.454a2.257,2.257,0,0,0-.641-1.3,2.257,2.257,0,0,0-1.3-.642l-11.454-1.526,11.454-1.526a2.26,2.26,0,0,0,1.3-.641,2.257,2.257,0,0,0,.641-1.3Z" transform="translate(-137.918 555.759)" fill="#812ae9" fill-rule="evenodd"/>
  <path id="Path_139" data-name="Path 139" d="M76.409-397.255l1.869,14.025a2.765,2.765,0,0,0,.786,1.59,2.767,2.767,0,0,0,1.59.786l14.025,1.869-14.025,1.869a2.764,2.764,0,0,0-1.59.786,2.764,2.764,0,0,0-.786,1.59l-1.869,14.025-1.869-14.025a2.764,2.764,0,0,0-.786-1.59,2.763,2.763,0,0,0-1.59-.786L58.14-378.985l14.025-1.869a2.767,2.767,0,0,0,1.59-.786,2.765,2.765,0,0,0,.786-1.59Z" transform="translate(-58.14 511.735)" fill="#812ae9" fill-rule="evenodd"/>
  <path id="Path_140" data-name="Path 140" d="M219.128-607.323,221-593.3a2.763,2.763,0,0,0,.786,1.59,2.763,2.763,0,0,0,1.59.785l14.025,1.869-14.025,1.869a2.764,2.764,0,0,0-1.59.786,2.762,2.762,0,0,0-.786,1.59l-1.869,14.025-1.869-14.025a2.764,2.764,0,0,0-.786-1.59,2.765,2.765,0,0,0-1.59-.786l-14.025-1.869,14.025-1.869a2.765,2.765,0,0,0,1.59-.785,2.766,2.766,0,0,0,.786-1.59Z" transform="translate(-123.081 607.323)" fill="#00fff3" fill-rule="evenodd"/>
  <path id="Path_141" data-name="Path 141" d="M110.085-494l1.869,14.025a2.765,2.765,0,0,0,.786,1.59,2.766,2.766,0,0,0,1.59.786l14.025,1.869-14.025,1.869a2.763,2.763,0,0,0-1.59.786,2.764,2.764,0,0,0-.786,1.59l-1.869,14.025-1.869-14.025a2.768,2.768,0,0,0-.786-1.59,2.765,2.765,0,0,0-1.59-.786l-14.025-1.869L105.84-477.6a2.767,2.767,0,0,0,1.59-.786,2.768,2.768,0,0,0,.786-1.59Z" transform="translate(-73.463 555.759)" fill="#00fff3" fill-rule="evenodd"/>
  <path id="Path_142" data-name="Path 142" d="M399.129-542.954l3.278,24.6a4.852,4.852,0,0,0,1.378,2.789,4.848,4.848,0,0,0,2.789,1.378l24.6,3.279-24.6,3.278a4.853,4.853,0,0,0-2.789,1.378,4.854,4.854,0,0,0-1.378,2.789l-3.278,24.6-3.279-24.6a4.85,4.85,0,0,0-1.378-2.789,4.852,4.852,0,0,0-2.789-1.378l-24.6-3.278,24.6-3.279a4.847,4.847,0,0,0,2.789-1.378,4.848,4.848,0,0,0,1.378-2.789Z" transform="translate(-198.719 578.033)" fill="#00fff3" fill-rule="evenodd"/>
  <path id="Path_143" data-name="Path 143" d="M131.129-127.4h-.045V-225.66H279.647V-127.4H279.6a3.324,3.324,0,0,1,.045.544c0,8.531-33.284,15.456-74.281,15.456s-74.281-6.926-74.281-15.456A3.324,3.324,0,0,1,131.129-127.4Z" transform="translate(-91.332 433.654)" fill="#812ae9" fill-rule="evenodd"/>
  <path id="Path_144" data-name="Path 144" d="M158.175-227.781v111.889c-16.541-2.866-27.091-7.2-27.091-12.058a3.393,3.393,0,0,1,.045-.55h-.045v-99.282Z" transform="translate(-91.332 434.619)" fill="#6a0ed6" fill-rule="evenodd"/>
  <path id="Path_145" data-name="Path 145" d="M279.647-221.21v1.977H279.6a3.329,3.329,0,0,1,.045.544c0,8.531-33.284,15.456-74.281,15.456s-74.281-6.925-74.281-15.456a3.33,3.33,0,0,1,.045-.544h-.045v-1.977Z" transform="translate(-91.332 431.629)" fill="#6a0ed6" fill-rule="evenodd"/>
  <path id="Path_146" data-name="Path 146" d="M179.644-302.19c58,0,105.086,11.412,105.086,25.468s-47.087,25.468-105.086,25.468S74.558-262.666,74.558-276.722,121.646-302.19,179.644-302.19Z" transform="translate(-65.611 468.478)" fill="#812ae9" fill-rule="evenodd"/>
  <path id="Path_147" data-name="Path 147" d="M198.654-281.8c44.373,0,80.4,6.6,80.4,14.72s-36.025,14.72-80.4,14.72-80.4-6.6-80.4-14.72S154.281-281.8,198.654-281.8Z" transform="translate(-85.495 459.2)" fill="#6a0ed6" fill-rule="evenodd"/>
  <g id="Group_48" data-name="Group 48">
    <path id="Path_148" data-name="Path 148" d="M186.421-330.478c-11.618-28.907-26.064-68.729-29.9-93.178a23.825,23.825,0,0,1,19.83-27.221,23.824,23.824,0,0,1,27.22,19.83c3.84,24.45,1.682,70.542-.514,101.617A112.967,112.967,0,0,1,186.421-330.478Z" transform="translate(-102.772 536.267)" fill="#00fff3" fill-rule="evenodd"/>
    <path id="Path_149" data-name="Path 149" d="M213.351-279.528c3.7,12.114,6.365,12.147,5.772,0-.864-17.708-2.4-42.2-4.748-55.613a7.688,7.688,0,0,0-8.893-6.245,7.688,7.688,0,0,0-6.246,8.893C201.539-319.329,208.192-296.4,213.351-279.528Z" transform="translate(-122.291 486.366)" fill="#812ae9" fill-rule="evenodd"/>
    <path id="Path_150" data-name="Path 150" d="M308.178-330.478c11.617-28.907,26.064-68.729,29.9-93.178a23.825,23.825,0,0,0-19.83-27.221,23.824,23.824,0,0,0-27.22,19.83c-3.84,24.45-1.682,70.542.514,101.617A112.967,112.967,0,0,0,308.178-330.478Z" transform="translate(-163.153 536.267)" fill="#00fff3" fill-rule="evenodd"/>
    <path id="Path_151" data-name="Path 151" d="M305.769-279.528c-3.705,12.114-6.365,12.147-5.773,0,.864-17.708,2.4-42.2,4.748-55.613a7.688,7.688,0,0,1,8.893-6.245,7.688,7.688,0,0,1,6.245,8.893C317.581-319.329,310.927-296.4,305.769-279.528Z" transform="translate(-168.155 486.366)" fill="#812ae9" fill-rule="evenodd"/>
  </g>
  <g id="Group_49" data-name="Group 49" transform="translate(29.064 -57.622) rotate(18)">
    <path id="Path_152" data-name="Path 152" d="M513.513-484.582a2.456,2.456,0,0,0-3.361-.869L405.123-423.583a2.456,2.456,0,0,0-.869,3.361l2.492,4.231a2.457,2.457,0,0,0,3.362.87l105.028-61.869a2.456,2.456,0,0,0,.869-3.361Z" transform="translate(-215.478 552.022)" fill="#6a0ed6" fill-rule="evenodd"/>
    <path id="Path_153" data-name="Path 153" d="M437.242-408.742a1.277,1.277,0,0,0-1.747-.452l-2.2,1.3a1.276,1.276,0,0,0-.452,1.747l10.319,17.517a1.276,1.276,0,0,0,1.747.452l2.2-1.3a1.276,1.276,0,0,0,.452-1.747Z" transform="translate(-228.562 517.248)" fill="#fff" fill-rule="evenodd"/>
  </g>
</svg>
