<svg xmlns="http://www.w3.org/2000/svg" width="19.733" height="28.816" viewBox="0 0 19.733 28.816">
  <g id="Group_46" data-name="Group 46" transform="translate(0 201.515)">
    <path id="Path_196" data-name="Path 196" d="M9.867-172.7s9.867-13.264,9.867-18.949a9.871,9.871,0,0,0-9.867-9.867A9.871,9.871,0,0,0,0-191.648C0-185.964,9.867-172.7,9.867-172.7Z" transform="translate(0 0)" fill="#00fff3" fill-rule="evenodd"/>
    <path id="Path_197" data-name="Path 197" d="M46.751-161.779a3.714,3.714,0,0,1,3.712,3.712,3.714,3.714,0,0,1-3.712,3.712,3.714,3.714,0,0,1-3.712-3.712A3.714,3.714,0,0,1,46.751-161.779Z" transform="translate(-36.884 -34.054)" fill="#fff" fill-rule="evenodd"/>
  </g>
</svg>
