<svg xmlns="http://www.w3.org/2000/svg" width="120" height="120" viewBox="0 0 120 120">
  <g id="Artboard1" transform="translate(-487.909 -81.943)">
    <rect id="Rectangle_214" data-name="Rectangle 214" width="120" height="120" transform="translate(487.909 81.943)" fill="none"/>
    <g id="Group_2758" data-name="Group 2758" transform="translate(488.392 82.427)">
      <g id="Group_2727" data-name="Group 2727" transform="translate(7.959 47.412)">
        <path id="Path_513" data-name="Path 513" d="M180.685,570.716a.453.453,0,0,1,.292.242.508.508,0,0,1,.036.376.472.472,0,0,1-.605.339l-4.428-1.283a.467.467,0,0,1-.294-.235.5.5,0,0,1-.031-.391.476.476,0,0,1,.228-.286.459.459,0,0,1,.375-.045Z" transform="translate(-175.628 -569.411)" fill="#fff"/>
      </g>
      <g id="Group_2728" data-name="Group 2728" transform="translate(9.636 41.937)">
        <path id="Path_514" data-name="Path 514" d="M195.654,257.916l.818-1.914a.488.488,0,0,1,.257-.268.442.442,0,0,1,.367.005.437.437,0,0,1,.25.258.488.488,0,0,1-.016.371l-1.019,2.383a.475.475,0,0,1-.638.257l-4.24-1.811a.466.466,0,0,1-.263-.268.5.5,0,0,1,.016-.393.478.478,0,0,1,.262-.257.453.453,0,0,1,.377,0Z" transform="translate(-191.138 -255.697)" fill="#fff"/>
      </g>
      <g id="Group_2729" data-name="Group 2729" transform="translate(12.864 32.815)">
        <path id="Path_515" data-name="Path 515" d="M193.931,606.877a.433.433,0,0,1,.3-.212.5.5,0,0,1,.363.073l2.458,1.515a2.386,2.386,0,0,1,.85.856,2.063,2.063,0,0,1,.27,1.081,2.442,2.442,0,0,1-1.207,1.958,2.034,2.034,0,0,1-1.089.247,2.374,2.374,0,0,1-1.147-.374l-2.458-1.515a.47.47,0,0,1-.22-.3.506.506,0,0,1,.075-.386.468.468,0,0,1,.292-.208.462.462,0,0,1,.374.056l2.458,1.515a1.338,1.338,0,0,0,.676.217,1.224,1.224,0,0,0,.623-.151,1.2,1.2,0,0,0,.451-.43,1.308,1.308,0,0,0,.2-.627,1.249,1.249,0,0,0-.623-1.162l-2.458-1.515a.511.511,0,0,1-.233-.284A.409.409,0,0,1,193.931,606.877Z" transform="translate(-192.033 -606.656)" fill="#fff"/>
      </g>
      <g id="Group_2730" data-name="Group 2730" transform="translate(17.889 25.997)">
        <path id="Path_516" data-name="Path 516" d="M221.078,203.9l-1.513,1.743a.49.49,0,0,1-.324.178.43.43,0,0,1-.344-.115.418.418,0,0,1-.158-.321.507.507,0,0,1,.134-.344l2.139-2.463a.581.581,0,0,1,.324-.178.406.406,0,0,1,.371.1.509.509,0,0,1,.155.283l.951,4.84,1.668-1.92a.5.5,0,0,1,.321-.181.423.423,0,0,1,.341.111.437.437,0,0,1,.158.323.487.487,0,0,1-.128.349l-2.3,2.644a.5.5,0,0,1-.347.175.446.446,0,0,1-.343-.1.51.51,0,0,1-.155-.283Z" transform="translate(-218.738 -202.385)" fill="#fff"/>
      </g>
      <g id="Group_2731" data-name="Group 2731" transform="translate(25.331 21.063)">
        <path id="Path_517" data-name="Path 517" d="M236.516,651.015a1.965,1.965,0,0,1-.762.411,1.634,1.634,0,0,1-.827.015.5.5,0,0,1-.254-.149.43.43,0,0,1-.1-.356.472.472,0,0,1,.146-.3.444.444,0,0,1,.225-.1,1.149,1.149,0,0,1,.269-.01,1.022,1.022,0,0,0,.371-.051.971.971,0,0,0,.309-.184.9.9,0,0,0,.262-.381.968.968,0,0,0,.046-.461.775.775,0,0,0-.183-.41l-2.178-2.545a.449.449,0,0,1-.111-.363.5.5,0,0,1,.176-.334.472.472,0,0,1,.693.049l2.178,2.544a1.679,1.679,0,0,1,.392.851,1.971,1.971,0,0,1-.085.956A1.852,1.852,0,0,1,236.516,651.015Z" transform="translate(-233.726 -645.666)" fill="#fff"/>
      </g>
      <g id="Group_2732" data-name="Group 2732" transform="translate(30.26 16.456)">
        <path id="Path_518" data-name="Path 518" d="M255.3,662.963a3.078,3.078,0,0,1,.41,1.058,2.848,2.848,0,0,1,0,1.073,2.591,2.591,0,0,1-.415.975,2.643,2.643,0,0,1-.814.758,2.59,2.59,0,0,1-2.1.29,2.84,2.84,0,0,1-.956-.488,3.218,3.218,0,0,1-1.161-1.907,2.848,2.848,0,0,1,.006-1.073,2.589,2.589,0,0,1,1.221-1.729,2.646,2.646,0,0,1,1.047-.375,2.606,2.606,0,0,1,1.058.081,2.85,2.85,0,0,1,.956.487A3.1,3.1,0,0,1,255.3,662.963Zm-.886.539a2.132,2.132,0,0,0-.688-.716,1.765,1.765,0,0,0-.862-.283,1.61,1.61,0,0,0-1.486.9,1.744,1.744,0,0,0-.145.891,2.331,2.331,0,0,0,1.01,1.658,1.722,1.722,0,0,0,.86.285,1.612,1.612,0,0,0,1.485-.9,1.776,1.776,0,0,0,.146-.9A2.151,2.151,0,0,0,254.411,663.5Z" transform="translate(-250.211 -661.523)" fill="#fff"/>
      </g>
      <g id="Group_2733" data-name="Group 2733" transform="translate(37.881 12.055)">
        <path id="Path_519" data-name="Path 519" d="M290.41,159.562l-1.255-3.2a.448.448,0,0,1-.005-.34.415.415,0,0,1,.251-.235.4.4,0,0,1,.336.005.448.448,0,0,1,.228.253l1.7,4.33a.477.477,0,0,1-.275.63.676.676,0,0,1-.21.044.365.365,0,0,1-.189-.034l-4.084-2.39,1.245,3.171a.442.442,0,0,1,0,.343.432.432,0,0,1-.254.237.411.411,0,0,1-.336,0,.451.451,0,0,1-.228-.254l-1.7-4.328a.479.479,0,0,1,.275-.632.721.721,0,0,1,.231-.044.34.34,0,0,1,.211.059Z" transform="translate(-285.599 -155.758)" fill="#fff"/>
      </g>
      <g id="Group_2734" data-name="Group 2734" transform="translate(46.357 10.602)">
        <path id="Path_520" data-name="Path 520" d="M306.125,686.74a.451.451,0,0,1-.065.374.5.5,0,0,1-.308.219.472.472,0,0,1-.6-.356l-1.094-4.479a.463.463,0,0,1,.056-.37.5.5,0,0,1,.324-.223.476.476,0,0,1,.363.055.46.46,0,0,1,.226.3Z" transform="translate(-304.048 -681.89)" fill="#fff"/>
      </g>
      <g id="Group_2735" data-name="Group 2735" transform="translate(51.389 9.356)">
        <path id="Path_521" data-name="Path 521" d="M323.34,690.809a3.378,3.378,0,0,1-1.015-.021,2.406,2.406,0,0,1-.9-.389.639.639,0,0,1-.182-.179.5.5,0,0,1-.081-.214.46.46,0,0,1,.093-.336.431.431,0,0,1,.313-.177.421.421,0,0,1,.28.062,2.5,2.5,0,0,0,.642.3,1.9,1.9,0,0,0,.747.041,1.573,1.573,0,0,0,.528-.155,1.059,1.059,0,0,0,.368-.292.491.491,0,0,0,.108-.37.594.594,0,0,0-.189-.387,1.092,1.092,0,0,0-.468-.23,3.341,3.341,0,0,0-.766-.091,3.376,3.376,0,0,1-.775-.106,1.779,1.779,0,0,1-.582-.269,1.337,1.337,0,0,1-.385-.437,1.656,1.656,0,0,1-.183-.6,1.467,1.467,0,0,1,.163-.911,1.666,1.666,0,0,1,.652-.639,2.561,2.561,0,0,1,.975-.306,2.894,2.894,0,0,1,.973.042,2.268,2.268,0,0,1,.764.308.535.535,0,0,1,.279.394.456.456,0,0,1-.1.333.421.421,0,0,1-.3.179.346.346,0,0,1-.222-.046,1.448,1.448,0,0,0-.365-.169,3.165,3.165,0,0,0-.471-.115,1.654,1.654,0,0,0-.452-.015,1.7,1.7,0,0,0-.564.155.789.789,0,0,0-.324.279.547.547,0,0,0-.078.363.57.57,0,0,0,.184.376.945.945,0,0,0,.43.2,4.64,4.64,0,0,0,.644.09,6.41,6.41,0,0,1,.86.107,1.956,1.956,0,0,1,.634.235,1.163,1.163,0,0,1,.411.426,1.742,1.742,0,0,1,.2.672,1.425,1.425,0,0,1-.181.921,1.84,1.84,0,0,1-.681.658A2.552,2.552,0,0,1,323.34,690.809Z" transform="translate(-320.875 -685.082)" fill="#fff"/>
      </g>
      <g id="Group_2736" data-name="Group 2736" transform="translate(59.013 9.066)">
        <path id="Path_522" data-name="Path 522" d="M358,146.723l-1.252-.044a.5.5,0,0,1-.342-.139.433.433,0,0,1-.128-.34.417.417,0,0,1,.151-.325.5.5,0,0,1,.351-.112l3.54.124a.5.5,0,0,1,.342.14.434.434,0,0,1,.128.34.417.417,0,0,1-.151.325.5.5,0,0,1-.351.112l-1.252-.044-.146,4.176a.46.46,0,0,1-.16.343.529.529,0,0,1-.384.126.5.5,0,0,1-.362-.152.467.467,0,0,1-.131-.353Z" transform="translate(-356.273 -145.762)" fill="#fff"/>
      </g>
      <g id="Group_2737" data-name="Group 2737" transform="translate(65.713 9.93)">
        <path id="Path_523" data-name="Path 523" d="M380.089,152.74l-.582.882a.487.487,0,0,1-.211.2.421.421,0,0,1-.262.037.4.4,0,0,1-.292-.174.435.435,0,0,1-.049-.309.519.519,0,0,1,.051-.146l2.812-4.334a.522.522,0,0,1,.237-.208.423.423,0,0,1,.291-.02.477.477,0,0,1,.382.4l1.089,4.951a.531.531,0,0,1,0,.2.444.444,0,0,1-.2.313.451.451,0,0,1-.325.07.415.415,0,0,1-.239-.133.568.568,0,0,1-.133-.268l-.234-1.023Zm.549-.832,1.569.287-.452-1.981Z" transform="translate(-378.684 -148.651)" fill="#fff"/>
      </g>
      <g id="Group_2738" data-name="Group 2738" transform="translate(38.342 101.708)">
        <path id="Path_524" data-name="Path 524" d="M288.815,458.82l-.713,1.717a.452.452,0,0,1-.273.263.5.5,0,0,1-.378-.006.471.471,0,0,1-.271-.639l1.767-4.258a.464.464,0,0,1,.266-.266.5.5,0,0,1,.392.012.479.479,0,0,1,.26.259.459.459,0,0,1,0,.377l-.7,1.694,2.35.975.7-1.694a.453.453,0,0,1,.273-.263.5.5,0,0,1,.378.006.471.471,0,0,1,.27.639l-1.767,4.259a.471.471,0,0,1-.262.267.5.5,0,0,1-.4-.013.479.479,0,0,1-.26-.259.458.458,0,0,1,0-.377l.712-1.717Z" transform="translate(-287.14 -455.596)" fill="#fff"/>
      </g>
      <g id="Group_2739" data-name="Group 2739" transform="translate(46.246 104.227)">
        <path id="Path_525" data-name="Path 525" d="M308.4,367.868a.433.433,0,0,1,.293.213.5.5,0,0,1,.044.368l-.675,2.808a2.369,2.369,0,0,1-.551,1.073,2.054,2.054,0,0,1-.942.594,2.452,2.452,0,0,1-2.238-.538,2.039,2.039,0,0,1-.573-.958,2.371,2.371,0,0,1,0-1.207l.675-2.807a.466.466,0,0,1,.221-.3.5.5,0,0,1,.39-.05.471.471,0,0,1,.289.213.461.461,0,0,1,.062.373l-.675,2.807a1.333,1.333,0,0,0,0,.711,1.22,1.22,0,0,0,.885.84,1.321,1.321,0,0,0,.658,0,1.252,1.252,0,0,0,.911-.954l.675-2.808a.514.514,0,0,1,.2-.309A.4.4,0,0,1,308.4,367.868Z" transform="translate(-303.675 -367.041)" fill="#fff"/>
      </g>
      <g id="Group_2740" data-name="Group 2740" transform="translate(53.696 105.634)">
        <path id="Path_526" data-name="Path 526" d="M342.044,471.443a2.192,2.192,0,0,1,.258.153,1.419,1.419,0,0,1,.454.517,1.441,1.441,0,0,1,.13.8,1.885,1.885,0,0,1-.241.845,1.323,1.323,0,0,1-.492.48,1.734,1.734,0,0,1-.617.2,2.946,2.946,0,0,1-.618.018l-1.98-.162a.477.477,0,0,1-.445-.524l.376-4.6a.477.477,0,0,1,.524-.445l2,.164a1.6,1.6,0,0,1,1.108.451,1.4,1.4,0,0,1,.287,1.088,1.182,1.182,0,0,1-.237.641A1.162,1.162,0,0,1,342.044,471.443Zm-2.355.447-.126,1.534,1.431.117a.833.833,0,0,0,.6-.147.753.753,0,0,0,.262-.567.765.765,0,0,0-.1-.528.612.612,0,0,0-.326-.227,1.893,1.893,0,0,0-.362-.07Zm.178-2.178-.1,1.24,1.336.109a.633.633,0,0,0,.426-.117.537.537,0,0,0,.219-.422.573.573,0,0,0-.567-.7Z" transform="translate(-338.493 -468.727)" fill="#fff"/>
      </g>
      <g id="Group_2741" data-name="Group 2741" transform="translate(60.966 105.762)">
        <path id="Path_527" data-name="Path 527" d="M364.052,473.943l2.158-.129a.471.471,0,0,1,.355.118.445.445,0,0,1,.159.314.424.424,0,0,1-.12.335.5.5,0,0,1-.339.148l-2.667.16a.477.477,0,0,1-.515-.457l-.276-4.6a.476.476,0,0,1,.456-.515l2.668-.16a.486.486,0,0,1,.354.111.444.444,0,0,1,.16.33.411.411,0,0,1-.12.331.5.5,0,0,1-.339.144l-2.158.13.081,1.354,1.8-.108a.487.487,0,0,1,.354.111.446.446,0,0,1,.16.33.41.41,0,0,1-.12.331.5.5,0,0,1-.339.144l-1.8.108Z" transform="translate(-362.805 -469.154)" fill="#fff"/>
      </g>
      <g id="Group_2742" data-name="Group 2742" transform="translate(67.151 104.838)">
        <path id="Path_528" data-name="Path 528" d="M385.1,469.936l.315,1.515a.537.537,0,0,1-.038.362.376.376,0,0,1-.276.2.623.623,0,0,1-.419-.055.427.427,0,0,1-.242-.3l-.941-4.514a.477.477,0,0,1,.377-.576l2.249-.469a1.476,1.476,0,0,1,.806.056,1.664,1.664,0,0,1,.7.474,1.742,1.742,0,0,1,.4.825,1.479,1.479,0,0,1,0,.6,1.845,1.845,0,0,1-.222.576,1.616,1.616,0,0,1-.253.327,1.275,1.275,0,0,1,.253.142,1.355,1.355,0,0,1,.3.3,1.2,1.2,0,0,1,.18.374q.072.189.115.335a1.035,1.035,0,0,0,.1.24.282.282,0,0,0,.169.128.45.45,0,0,1,.276.248.372.372,0,0,1-.019.359.387.387,0,0,1-.192.175.67.67,0,0,1-.266.055.823.823,0,0,1-.234-.029,1.135,1.135,0,0,1-.314-.175,1.17,1.17,0,0,1-.3-.365,2.272,2.272,0,0,1-.22-.647.653.653,0,0,0-.1-.236.554.554,0,0,0-.418-.247,1.042,1.042,0,0,0-.321.022Zm-.168-.8,1.71-.356a.4.4,0,0,0,.246-.186.993.993,0,0,0,.146-.4,1.383,1.383,0,0,0-.016-.506.913.913,0,0,0-.3-.536.523.523,0,0,0-.443-.148l-1.71.356Z" transform="translate(-383.49 -466.065)" fill="#fff"/>
      </g>
      <g id="Group_2743" data-name="Group 2743" transform="translate(73.601 102.537)">
        <path id="Path_529" data-name="Path 529" d="M406.886,460.05l-1.177.429a.493.493,0,0,1-.37,0,.432.432,0,0,1-.246-.267.421.421,0,0,1,.018-.359.5.5,0,0,1,.284-.235l3.327-1.214a.5.5,0,0,1,.37,0,.432.432,0,0,1,.246.267.419.419,0,0,1-.018.359.5.5,0,0,1-.283.235l-1.177.429,1.433,3.927a.459.459,0,0,1-.02.376.53.53,0,0,1-.308.261.506.506,0,0,1-.393-.005.464.464,0,0,1-.254-.277Z" transform="translate(-405.062 -458.368)" fill="#fff"/>
      </g>
      <g id="Group_2744" data-name="Group 2744" transform="translate(83.711 97.693)">
        <path id="Path_530" data-name="Path 530" d="M442.856,444.113a2.227,2.227,0,0,1,.3-.041,1.421,1.421,0,0,1,.678.122,1.44,1.44,0,0,1,.6.544,1.893,1.893,0,0,1,.338.811,1.316,1.316,0,0,1-.086.681,1.741,1.741,0,0,1-.356.542,2.923,2.923,0,0,1-.473.4l-1.65,1.106a.477.477,0,0,1-.675-.133l-2.567-3.83a.477.477,0,0,1,.133-.675l1.67-1.119a1.6,1.6,0,0,1,1.147-.337,1.4,1.4,0,0,1,.9.672,1.184,1.184,0,0,1,.214.649A1.159,1.159,0,0,1,442.856,444.113Zm-.707,3.1,1.192-.8a.827.827,0,0,0,.375-.486.753.753,0,0,0-.147-.607.764.764,0,0,0-.409-.351.612.612,0,0,0-.395.025,1.9,1.9,0,0,0-.327.171l-1.146.768Zm-1.382-2.06,1.114-.747a.637.637,0,0,0,.26-.357.537.537,0,0,0-.092-.466.573.573,0,0,0-.881-.2l-1.094.733Z" transform="translate(-438.874 -442.167)" fill="#fff"/>
      </g>
      <g id="Group_2745" data-name="Group 2745" transform="translate(89.257 92.709)">
        <path id="Path_531" data-name="Path 531" d="M450.255,405.274a.432.432,0,0,1,.341-.123.5.5,0,0,1,.328.171l1.945,2.135a2.371,2.371,0,0,1,.579,1.058,2.055,2.055,0,0,1-.037,1.113,2.448,2.448,0,0,1-1.7,1.55,2.049,2.049,0,0,1-1.115-.063,2.382,2.382,0,0,1-1-.677l-1.944-2.134a.462.462,0,0,1-.127-.354.5.5,0,0,1,.177-.35.47.47,0,0,1,.339-.12.46.46,0,0,1,.343.157l1.944,2.135a1.338,1.338,0,0,0,.592.394,1.221,1.221,0,0,0,1.192-.26,1.324,1.324,0,0,0,.365-.547,1.283,1.283,0,0,0,.05-.655,1.26,1.26,0,0,0-.329-.634l-1.944-2.134a.516.516,0,0,1-.146-.338A.406.406,0,0,1,450.255,405.274Z" transform="translate(-447.523 -405.149)" fill="#fff"/>
      </g>
      <g id="Group_2746" data-name="Group 2746" transform="translate(94.387 87.808)">
        <path id="Path_532" data-name="Path 532" d="M477.783,413.29l1.21.965a.535.535,0,0,1,.2.3.374.374,0,0,1-.085.33.618.618,0,0,1-.358.224.428.428,0,0,1-.381-.079l-3.6-2.874a.476.476,0,0,1-.184-.327.47.47,0,0,1,.107-.358l1.432-1.8a1.474,1.474,0,0,1,.657-.471,1.672,1.672,0,0,1,.84-.081,1.755,1.755,0,0,1,.833.38,1.491,1.491,0,0,1,.385.465,1.875,1.875,0,0,1,.2.586,1.619,1.619,0,0,1,.013.413,1.28,1.28,0,0,1,.286-.053,1.321,1.321,0,0,1,.419.039,1.178,1.178,0,0,1,.376.173c.117.066.218.128.3.185a1.016,1.016,0,0,0,.229.122.285.285,0,0,0,.212-.01.445.445,0,0,1,.37.015.37.37,0,0,1,.214.288.39.39,0,0,1-.036.257.687.687,0,0,1-.169.213.844.844,0,0,1-.2.127,1.142,1.142,0,0,1-.354.065,1.169,1.169,0,0,1-.464-.09,2.314,2.314,0,0,1-.583-.356.619.619,0,0,0-.226-.12.568.568,0,0,0-.24-.019.58.58,0,0,0-.239.095,1.047,1.047,0,0,0-.233.223Zm-.642-.512,1.089-1.366a.4.4,0,0,0,.071-.3,1,1,0,0,0-.142-.4,1.36,1.36,0,0,0-.334-.379.913.913,0,0,0-.576-.219.522.522,0,0,0-.435.168l-1.09,1.366Z" transform="translate(-474.579 -409.108)" fill="#fff"/>
      </g>
      <g id="Group_2747" data-name="Group 2747" transform="translate(98.599 81.39)">
        <path id="Path_533" data-name="Path 533" d="M490.694,389.2l-1.156,2a.494.494,0,0,1-.284.237.434.434,0,0,1-.36-.047.419.419,0,0,1-.217-.286.507.507,0,0,1,.067-.363l1.633-2.823a.573.573,0,0,1,.284-.237.407.407,0,0,1,.384.024.507.507,0,0,1,.205.248l1.852,4.572,1.273-2.2a.5.5,0,0,1,.282-.238.417.417,0,0,1,.356.045.438.438,0,0,1,.217.287.494.494,0,0,1-.06.366l-1.754,3.031a.5.5,0,0,1-.308.237.447.447,0,0,1-.355-.031.512.512,0,0,1-.207-.248Z" transform="translate(-488.668 -387.644)" fill="#fff"/>
      </g>
      <g id="Group_2748" data-name="Group 2748" transform="translate(101.579 75.361)">
        <path id="Path_534" data-name="Path 534" d="M501.341,370.174l-1.3-1.935a.479.479,0,0,1-.074-.459.488.488,0,0,1,.637-.262.594.594,0,0,1,.129.074.526.526,0,0,1,.112.117l1.6,2.434,1.806.721a.471.471,0,0,1,.27.258.451.451,0,0,1,.01.353.466.466,0,0,1-.255.263.472.472,0,0,1-.375,0l-1.908-.762-2.663.723a.7.7,0,0,1-.227.03.583.583,0,0,1-.174-.036.432.432,0,0,1-.264-.285.552.552,0,0,1,0-.369.486.486,0,0,1,.353-.28Z" transform="translate(-498.632 -367.48)" fill="#fff"/>
      </g>
      <g id="Group_2749" data-name="Group 2749" transform="translate(102.979 68.59)">
        <path id="Path_535" data-name="Path 535" d="M508.784,346.481l-3.34-.783a.452.452,0,0,1-.284-.19.418.418,0,0,1-.051-.34.408.408,0,0,1,.2-.274.457.457,0,0,1,.338-.044l4.527,1.061a.472.472,0,0,1,.306.216.463.463,0,0,1,.056.369.644.644,0,0,1-.082.2.36.36,0,0,1-.135.136l-4.288,2,3.318.777a.444.444,0,0,1,.282.193.429.429,0,0,1,.051.344.406.406,0,0,1-.2.274.449.449,0,0,1-.338.043l-4.528-1.061a.476.476,0,0,1-.364-.584.7.7,0,0,1,.1-.216.344.344,0,0,1,.168-.141Zm-4.4.459a.36.36,0,0,1-.133.219.26.26,0,0,1-.223.041.217.217,0,0,1-.1-.051.53.53,0,0,1-.086-.106l-.434-.806a1.083,1.083,0,0,1-.077-.212.428.428,0,0,1,0-.209.47.47,0,0,1,.164-.248.336.336,0,0,1,.312-.075.434.434,0,0,1,.212.127.561.561,0,0,1,.133.257l.229.873a.254.254,0,0,1,.018.1A.59.59,0,0,1,504.382,346.94Z" transform="translate(-503.315 -344.837)" fill="#fff"/>
      </g>
      <g id="Group_2750" data-name="Group 2750" transform="translate(105.311 62.143)">
        <path id="Path_536" data-name="Path 536" d="M506.95,515.766a3.343,3.343,0,0,1-.221.99,2.414,2.414,0,0,1-.558.811.621.621,0,0,1-.212.143.492.492,0,0,1-.227.037.459.459,0,0,1-.311-.157.433.433,0,0,1-.112-.341.421.421,0,0,1,.117-.263,2.536,2.536,0,0,0,.422-.569,1.882,1.882,0,0,0,.187-.725,1.548,1.548,0,0,0-.047-.548,1.075,1.075,0,0,0-.214-.417.5.5,0,0,0-.343-.181.606.606,0,0,0-.416.111,1.072,1.072,0,0,0-.318.415,3.337,3.337,0,0,0-.24.733,3.3,3.3,0,0,1-.255.739,1.747,1.747,0,0,1-.378.518,1.333,1.333,0,0,1-.5.292,1.645,1.645,0,0,1-.625.061,1.464,1.464,0,0,1-.861-.338,1.684,1.684,0,0,1-.5-.765,2.593,2.593,0,0,1-.11-1.017,2.9,2.9,0,0,1,.233-.946,2.213,2.213,0,0,1,.452-.688.531.531,0,0,1,.44-.2.455.455,0,0,1,.306.161.426.426,0,0,1,.118.33.35.35,0,0,1-.09.208,1.466,1.466,0,0,0-.238.325,3.091,3.091,0,0,0-.2.44,1.669,1.669,0,0,0-.1.44,1.644,1.644,0,0,0,.041.583.8.8,0,0,0,.209.374.55.55,0,0,0,.34.147.563.563,0,0,0,.4-.107.941.941,0,0,0,.279-.381,4.462,4.462,0,0,0,.214-.615,6.372,6.372,0,0,1,.274-.821,1.973,1.973,0,0,1,.355-.576,1.163,1.163,0,0,1,.5-.32,1.754,1.754,0,0,1,.7-.063,1.421,1.421,0,0,1,.867.359,1.847,1.847,0,0,1,.512.8A2.553,2.553,0,0,1,506.95,515.766Z" transform="translate(-501.215 -513.463)" fill="#fff"/>
      </g>
      <g id="Group_2751" data-name="Group 2751" transform="translate(105.292 54.729)">
        <path id="Path_537" data-name="Path 537" d="M513.586,300.543l2.226-1.929a.538.538,0,0,1,.319-.133.45.45,0,0,1,.374.144.568.568,0,0,1,.163.364.424.424,0,0,1-.158.371l-2.163,1.88.771.706,1.254-.083a.473.473,0,0,1,.519.47.474.474,0,0,1-.116.366.48.48,0,0,1-.338.159l-4.6.305a.47.47,0,0,1-.356-.12.509.509,0,0,1-.163-.358.466.466,0,0,1,.116-.364.491.491,0,0,1,.338-.154l2.167-.144-2.679-2.38a.552.552,0,0,1-.209-.378.389.389,0,0,1,.135-.325.5.5,0,0,1,.306-.143.438.438,0,0,1,.32.122Z" transform="translate(-511.05 -298.479)" fill="#fff"/>
      </g>
      <g id="Group_2752" data-name="Group 2752" transform="translate(104.785 50.605)">
        <path id="Path_538" data-name="Path 538" d="M504.389,560.248a.455.455,0,0,1,.369.086.509.509,0,0,1,.2.32.471.471,0,0,1-.389.574l-4.535.835a.462.462,0,0,1-.368-.078.5.5,0,0,1-.2-.335.472.472,0,0,1,.076-.359.458.458,0,0,1,.314-.208Z" transform="translate(-499.456 -560.239)" fill="#fff"/>
      </g>
      <g id="Group_2753" data-name="Group 2753" transform="translate(21.324 21.324)">
        <path id="Path_539" data-name="Path 539" d="M258.717,407.5a38.391,38.391,0,1,0,38.391,38.391A38.409,38.409,0,0,0,258.717,407.5Zm0,1.108a37.283,37.283,0,1,1-37.284,37.284A37.3,37.3,0,0,1,258.717,408.609Z" transform="translate(-220.326 -407.501)" fill="#fff" fill-rule="evenodd"/>
      </g>
      <g id="Group_2754" data-name="Group 2754" transform="translate(34.711 36.666)">
        <path id="Path_540" data-name="Path 540" d="M284.276,242.021l-.038-3.229a.554.554,0,0,1,.551-.561l36.7-.163a.553.553,0,0,1,.472.846l-2.629,4.243a13.545,13.545,0,0,1,3.578,1.739,9.119,9.119,0,0,1,4.2,7.837,9.531,9.531,0,0,1-1.445,5.179,9.814,9.814,0,0,1-3.222,3.127,11.683,11.683,0,0,1,4.5,3.455,9.88,9.88,0,0,1,2,6.223,9.484,9.484,0,0,1-4.465,8.371c-2.5,1.661-5.964,2.619-10.4,2.844a.567.567,0,0,1-.234.051H299.806l-4.8,5.534a.554.554,0,0,1-.914-.609l2.444-4.925h-2.141a.554.554,0,0,1-.554-.553V267.661h-4.634V281.43a.554.554,0,0,1-.554.553h-13.1a.554.554,0,0,1-.554-.553V242.574a.554.554,0,0,1,.554-.553Zm19.3,25.77h-8.63v13.084h2.136Zm-19.288-24.663h-8.184v37.747H288.1V267.108a.554.554,0,0,1,.554-.554h2.987l6.328-11.695h-12.99a.554.554,0,0,1-.554-.547Zm34.444,1-10.22,16.5h8.613a.554.554,0,0,1,.418.917l-16.777,19.334h12.874a.567.567,0,0,1,.185-.041c4.291-.193,7.642-1.073,10.044-2.67a8.436,8.436,0,0,0,3.972-7.448,8.8,8.8,0,0,0-1.772-5.545,11.1,11.1,0,0,0-5.083-3.538.555.555,0,0,1-.055-1.015,9.2,9.2,0,0,0,3.8-3.3,8.448,8.448,0,0,0,1.276-4.59,8.072,8.072,0,0,0-3.732-6.929A12.65,12.65,0,0,0,318.733,244.128Z" transform="translate(-274.998 -238.067)" fill="#fff" fill-rule="evenodd"/>
      </g>
      <g id="Group_2755" data-name="Group 2755" transform="translate(0)">
        <path id="Path_541" data-name="Path 541" d="M208.724,336.184A59.715,59.715,0,1,0,268.439,395.9,59.743,59.743,0,0,0,208.724,336.184Zm0,1.108A58.608,58.608,0,1,1,150.116,395.9,58.636,58.636,0,0,1,208.724,337.292Z" transform="translate(-149.009 -336.184)" fill="#fff" fill-rule="evenodd"/>
      </g>
      <g id="Group_2756" data-name="Group 2756" transform="translate(18.261 84.162) rotate(180)">
        <circle id="Ellipse_30" data-name="Ellipse 30" cx="1.607" cy="1.607" r="1.607" transform="translate(0 0)" fill="#fff"/>
      </g>
      <g id="Group_2757" data-name="Group 2757" transform="translate(96.477 27.88) rotate(180)">
        <circle id="Ellipse_31" data-name="Ellipse 31" cx="1.607" cy="1.607" r="1.607" transform="translate(0)" fill="#fff"/>
      </g>
    </g>
  </g>
</svg>
