<svg xmlns="http://www.w3.org/2000/svg" width="32" height="32" viewBox="0 0 32 32">
  <g id="Group_11" data-name="Group 11" transform="translate(-1117 -40)">
    <g id="phone" transform="translate(1125.486 49)">
      <g id="Group_5" data-name="Group 5" transform="translate(0.539 0)">
        <path id="Path_8" data-name="Path 8" d="M14.143,10.275,12.19,8.321a1.3,1.3,0,0,0-2.163.488,1.33,1.33,0,0,1-1.535.837A6.025,6.025,0,0,1,4.863,6.018,1.265,1.265,0,0,1,5.7,4.483,1.3,1.3,0,0,0,6.189,2.32L4.235.366a1.394,1.394,0,0,0-1.884,0L1.025,1.692c-1.326,1.4.14,5.094,3.419,8.373s6.978,4.815,8.373,3.419l1.326-1.326A1.394,1.394,0,0,0,14.143,10.275Z" transform="translate(-0.539 0)" fill="#fff" stroke="#fff" stroke-width="1"/>
      </g>
    </g>
    <g id="Ellipse_1" data-name="Ellipse 1" transform="translate(1117 40)" fill="none" stroke="#fff" stroke-width="1">
      <circle cx="16" cy="16" r="16" stroke="none"/>
      <circle cx="16" cy="16" r="15.5" fill="none"/>
    </g>
  </g>
</svg>
