<svg xmlns="http://www.w3.org/2000/svg" width="134.958" height="134.032" viewBox="0 0 134.958 134.032">
  <g id="Group_25" data-name="Group 25" transform="translate(-29.48 422.416)">
    <path id="Path_18" data-name="Path 18" d="M172.645-162.851a2.776,2.776,0,0,0-2.774-2.775H108.385a2.776,2.776,0,0,0-2.774,2.775v41.411a2.776,2.776,0,0,0,2.774,2.775h61.485a2.776,2.776,0,0,0,2.774-2.775Z" transform="translate(-51.975 -175.311)" fill="#6a0ed6"/>
    <path id="Path_19" data-name="Path 19" d="M172.645-121.44l-64.26-44.186a2.776,2.776,0,0,0-2.774,2.775v41.411a2.776,2.776,0,0,0,2.774,2.775h61.485A2.776,2.776,0,0,0,172.645-121.44Z" transform="translate(-51.975 -175.311)" fill="#812ae9"/>
    <path id="Path_20" data-name="Path 20" d="M267.153-376.6a21.36,21.36,0,0,1,21.35,21.35,21.36,21.36,0,0,1-21.35,21.35,21.36,21.36,0,0,1-21.35-21.35A21.36,21.36,0,0,1,267.153-376.6Z" transform="translate(-147.684 -31.282)" fill="#812ae9"/>
    <path id="Path_21" data-name="Path 21" d="M279.365-362.029c9.128,0-16.539,25.668-16.539,16.539A16.547,16.547,0,0,1,279.365-362.029Z" transform="translate(-159.306 -41.226)" fill="#fff"/>
    <path id="Path_22" data-name="Path 22" d="M307.114-239.907a5.192,5.192,0,0,0-5.19-5.19,5.192,5.192,0,0,0-5.189,5.19,9.29,9.29,0,0,1,5.189-1.557A9.291,9.291,0,0,1,307.114-239.907Z" transform="translate(-182.456 -121.056)" fill="#812ae9"/>
    <path id="Path_23" data-name="Path 23" d="M201.244-118.665h6.346v-46.96h-6.346Z" transform="translate(-117.264 -175.311)" fill="#00fff3"/>
    <path id="Path_24" data-name="Path 24" d="M85.757-232.6a2.976,2.976,0,0,0-4.125-.825L30.8-199.54a2.976,2.976,0,0,0-.825,4.125l3.3,4.95a2.976,2.976,0,0,0,4.125.825l50.828-33.882a2.975,2.975,0,0,0,.825-4.125Z" transform="translate(0 -128.686)" fill="#6a0ed6"/>
    <path id="Path_25" data-name="Path 25" d="M53.312-134.367l-16.864-3.057L30.8-133.661a2.976,2.976,0,0,0-.825,4.125l3.3,4.95a2.976,2.976,0,0,0,4.125.825Z" transform="translate(0 -194.564)" fill="#812ae9"/>
    <path id="Path_26" data-name="Path 26" d="M111.552-181.143l-5.468,3.645,5.976,8.966,5.468-3.645Z" transform="translate(-52.298 -164.717)" fill="#00fff3"/>
    <path id="Path_27" data-name="Path 27" d="M58.416-207.949a9.864,9.864,0,0,1,13.673,2.735,9.864,9.864,0,0,1-2.735,13.673,9.864,9.864,0,0,1-13.673-2.735A9.865,9.865,0,0,1,58.416-207.949Zm2.734,4.1a4.932,4.932,0,0,1,6.837,1.368,4.932,4.932,0,0,1-1.368,6.837,4.932,4.932,0,0,1-6.837-1.368A4.932,4.932,0,0,1,61.151-203.847Z" transform="translate(-16.758 -145.287)" fill="#00fff3"/>
    <path id="Path_28" data-name="Path 28" d="M97.2-233.8a9.865,9.865,0,0,1,13.673,2.735,9.865,9.865,0,0,1-2.735,13.673,9.865,9.865,0,0,1-13.673-2.735A9.865,9.865,0,0,1,97.2-233.8Zm2.734,4.1a4.932,4.932,0,0,1,6.837,1.368A4.932,4.932,0,0,1,105.4-221.5a4.932,4.932,0,0,1-6.837-1.368A4.932,4.932,0,0,1,99.935-229.7Z" transform="translate(-43.236 -127.637)" fill="#00fff3"/>
    <path id="Path_29" data-name="Path 29" d="M75.628-365.289l1.547,11.608a2.288,2.288,0,0,0,.65,1.316,2.288,2.288,0,0,0,1.316.65l11.608,1.547L79.14-348.622a2.292,2.292,0,0,0-1.316.65,2.288,2.288,0,0,0-.65,1.316l-1.547,11.608-1.547-11.608a2.288,2.288,0,0,0-.65-1.316,2.292,2.292,0,0,0-1.316-.65l-11.608-1.547,11.608-1.547a2.288,2.288,0,0,0,1.316-.65,2.288,2.288,0,0,0,.65-1.316Z" transform="translate(-21.182 -39.001)" fill="#00fff3"/>
    <path id="Path_30" data-name="Path 30" d="M237.1-422.416,238.354-413a1.858,1.858,0,0,0,.527,1.067,1.857,1.857,0,0,0,1.067.527l9.416,1.255-9.416,1.255a1.858,1.858,0,0,0-1.067.527,1.859,1.859,0,0,0-.527,1.067l-1.255,9.415-1.255-9.415a1.859,1.859,0,0,0-.527-1.067,1.859,1.859,0,0,0-1.067-.527l-9.416-1.255,9.416-1.255a1.858,1.858,0,0,0,1.067-.527,1.858,1.858,0,0,0,.527-1.067Z" transform="translate(-133.369)" fill="#00fff3"/>
    <path id="Path_31" data-name="Path 31" d="M179.564-309.308l.757,5.682a1.119,1.119,0,0,0,.318.644,1.12,1.12,0,0,0,.644.319l5.682.757-5.682.757a1.12,1.12,0,0,0-.644.318,1.12,1.12,0,0,0-.318.644l-.757,5.682-.757-5.682a1.122,1.122,0,0,0-.318-.644,1.121,1.121,0,0,0-.644-.318l-5.682-.757,5.682-.757a1.121,1.121,0,0,0,.644-.319,1.121,1.121,0,0,0,.318-.644Z" transform="translate(-97.409 -77.219)" fill="#00fff3"/>
    <path id="Path_32" data-name="Path 32" d="M249.839-221.975l.649,4.87a.961.961,0,0,0,.273.552.96.96,0,0,0,.552.273l4.87.649-4.87.649a.96.96,0,0,0-.552.273.96.96,0,0,0-.273.552l-.649,4.87-.649-4.87a.96.96,0,0,0-.273-.552.96.96,0,0,0-.552-.273l-4.87-.649,4.87-.649a.96.96,0,0,0,.552-.273.961.961,0,0,0,.273-.552Z" transform="translate(-146.109 -136.841)" fill="#00fff3"/>
    <path id="Path_33" data-name="Path 33" d="M364.578-294.375a17.023,17.023,0,0,1,17.015,17.015,17.023,17.023,0,0,1-17.015,17.015,17.023,17.023,0,0,1-17.015-17.015A17.023,17.023,0,0,1,364.578-294.375Z" transform="translate(-217.156 -87.414)" fill="#00fff3"/>
    <path id="Path_34" data-name="Path 34" d="M374.31-282.766c7.275,0-13.181,20.456-13.181,13.181A13.188,13.188,0,0,1,374.31-282.766Z" transform="translate(-226.417 -95.339)" fill="#fff"/>
    <path id="Path_35" data-name="Path 35" d="M396.426-185.44a4.138,4.138,0,0,0-4.136-4.136,4.138,4.138,0,0,0-4.136,4.136,7.4,7.4,0,0,1,4.136-1.241A7.4,7.4,0,0,1,396.426-185.44Z" transform="translate(-244.867 -158.96)" fill="#00fff3"/>
    <path id="Path_17" data-name="Path 17" d="M151.015-21.634a1.865,1.865,0,0,0-1.864-1.864H39.7a1.865,1.865,0,0,0-1.864,1.864v3.728A1.865,1.865,0,0,0,39.7-16.042H149.151a1.865,1.865,0,0,0,1.864-1.864Z" transform="translate(-5.708 -272.342)" fill="#00fff3"/>
  </g>
</svg>
