<svg xmlns="http://www.w3.org/2000/svg" width="171.238" height="109.342" viewBox="0 0 171.238 109.342">
  <g id="Group_34" data-name="Group 34" transform="translate(0 297.775)">
    <path id="Path_78" data-name="Path 78" d="M238.267-151.609a6.468,6.468,0,0,1,6.466,6.465,6.469,6.469,0,0,1-6.466,6.466,6.469,6.469,0,0,1-6.466-6.466A6.468,6.468,0,0,1,238.267-151.609Z" transform="translate(-146.685 -92.495)" fill="#6a0ed6"/>
    <path id="Path_79" data-name="Path 79" d="M231.8-112.063h12.931V-134H231.8Z" transform="translate(-146.685 -103.637)" fill="#6a0ed6"/>
    <path id="Path_80" data-name="Path 80" d="M15.136-146.876a9.984,9.984,0,0,1,9.979,9.979,9.984,9.984,0,0,1-9.979,9.979A9.984,9.984,0,0,1,5.157-136.9,9.984,9.984,0,0,1,15.136-146.876Z" transform="translate(-3.263 -95.49)" fill="#00fff3"/>
    <path id="Path_81" data-name="Path 81" d="M390.024-69.078A12.689,12.689,0,0,1,402.706-56.4a12.689,12.689,0,0,1-12.683,12.683A12.688,12.688,0,0,1,377.341-56.4,12.688,12.688,0,0,1,390.024-69.078Z" transform="translate(-238.783 -144.721)" fill="#00fff3"/>
    <path id="Path_82" data-name="Path 82" d="M357.532-49.327a6.535,6.535,0,0,1,6.532,6.532,6.535,6.535,0,0,1-6.532,6.532A6.535,6.535,0,0,1,351-42.795,6.535,6.535,0,0,1,357.532-49.327Z" transform="translate(-222.114 -157.219)" fill="#00fff3"/>
    <path id="Path_83" data-name="Path 83" d="M28.616-272.684a28.629,28.629,0,0,1,28.615,28.616,28.629,28.629,0,0,1-28.615,28.616A28.629,28.629,0,0,1,0-244.068,28.629,28.629,0,0,1,28.616-272.684Z" transform="translate(0 -15.878)" fill="#00fff3"/>
    <path id="Path_84" data-name="Path 84" d="M76.055-153.055a1.3,1.3,0,0,0-1.3-1.3H72.166a1.3,1.3,0,0,0-1.3,1.3v49.77a1.3,1.3,0,0,0,1.3,1.3h2.593a1.3,1.3,0,0,0,1.3-1.3Z" transform="translate(-44.846 -90.759)" fill="#6a0ed6"/>
    <path id="Path_85" data-name="Path 85" d="M87.664-153.268a.422.422,0,0,0-.139-.58l-.718-.441a.422.422,0,0,0-.58.139l-8.6,14.012a.422.422,0,0,0,.139.58l.718.441a.422.422,0,0,0,.58-.139Z" transform="translate(-49.083 -90.759)" fill="#6a0ed6"/>
    <path id="Path_86" data-name="Path 86" d="M48.076-104.744a.444.444,0,0,0-.627,0l-.627.628a.444.444,0,0,0,0,.627l9.956,9.956a.444.444,0,0,0,.627,0l.627-.627a.444.444,0,0,0,0-.627Z" transform="translate(-29.547 -122.069)" fill="#6a0ed6"/>
    <path id="Path_87" data-name="Path 87" d="M191.061-21.341A2.158,2.158,0,0,0,188.9-23.5H33.483a2.158,2.158,0,0,0-2.157,2.157v4.314a2.158,2.158,0,0,0,2.157,2.157H188.9a2.158,2.158,0,0,0,2.157-2.157Z" transform="translate(-19.823 -173.564)" fill="#00fff3"/>
    <path id="Path_88" data-name="Path 88" d="M221.931-83.153a6.1,6.1,0,0,0-6.1-6.1h-68.4a6.1,6.1,0,0,0-6.1,6.1v12.2a6.1,6.1,0,0,0,6.1,6.1h68.4a6.1,6.1,0,0,0,6.1-6.1Z" transform="translate(-89.432 -131.953)" fill="#812ae9"/>
    <path id="Path_89" data-name="Path 89" d="M125.326-39.48v-4.842c0-2.673,1.234-4.842,2.754-4.842h87.031c1.52,0,2.754,2.17,2.754,4.842v4.842Z" transform="translate(-79.307 -157.322)" fill="#6a0ed6"/>
    <path id="Path_90" data-name="Path 90" d="M241.321-180.568a4.7,4.7,0,0,1,4.693,4.693,4.7,4.7,0,0,1-4.693,4.693,4.7,4.7,0,0,1-4.693-4.693A4.7,4.7,0,0,1,241.321-180.568Z" transform="translate(-149.739 -74.169)" fill="#6a0ed6"/>
    <path id="Path_91" data-name="Path 91" d="M278.927-149.274a.341.341,0,0,0,.481.037l11.275-9.65a.341.341,0,0,0,.037-.481l-.444-.518a.342.342,0,0,0-.481-.037l-11.275,9.65a.341.341,0,0,0-.037.481Z" transform="translate(-176.173 -87.181)" fill="#6a0ed6"/>
    <path id="Path_92" data-name="Path 92" d="M303.824-153.627a.156.156,0,0,0,.22.017l.237-.2a.156.156,0,0,0,.017-.22l-1.864-2.179a.156.156,0,0,0-.22-.017l-.238.2a.156.156,0,0,0-.017.22Z" transform="translate(-191.058 -89.547)" fill="#fff"/>
    <path id="Path_93" data-name="Path 93" d="M242.7-142.71l-3.893,1.958v-3.917Z" transform="translate(-151.119 -96.887)" fill="#fff"/>
    <path id="Path_94" data-name="Path 94" d="M249.409-142.71l3.893-1.958v3.917Z" transform="translate(-157.827 -96.887)" fill="#fff"/>
    <path id="Path_95" data-name="Path 95" d="M225.877-292.689l1.7,12.781a2.52,2.52,0,0,0,.716,1.449,2.519,2.519,0,0,0,1.449.716l12.781,1.7-12.781,1.7a2.519,2.519,0,0,0-1.449.716,2.52,2.52,0,0,0-.716,1.449l-1.7,12.781-1.7-12.781a2.52,2.52,0,0,0-.716-1.449,2.52,2.52,0,0,0-1.449-.716l-12.781-1.7,12.781-1.7a2.52,2.52,0,0,0,1.449-.716,2.52,2.52,0,0,0,.716-1.449Z" transform="translate(-132.4 -3.218)" fill="#00fff3"/>
    <path id="Path_96" data-name="Path 96" d="M301.211-210.268l.665,4.989a.985.985,0,0,0,.279.566.985.985,0,0,0,.566.279l4.989.665-4.989.665a.985.985,0,0,0-.566.28.983.983,0,0,0-.279.565l-.665,4.989-.665-4.989a.981.981,0,0,0-.279-.565.983.983,0,0,0-.566-.28l-4.989-.665,4.989-.665a.983.983,0,0,0,.566-.279.983.983,0,0,0,.279-.566Z" transform="translate(-186.495 -55.375)" fill="#00fff3"/>
    <path id="Path_97" data-name="Path 97" d="M360.266-192.57l1.355,10.169a2.006,2.006,0,0,0,.569,1.153,2,2,0,0,0,1.153.57l10.168,1.355-10.168,1.355a2.006,2.006,0,0,0-1.153.57,2,2,0,0,0-.569,1.153l-1.355,10.169-1.355-10.169a2,2,0,0,0-.569-1.153,2.007,2.007,0,0,0-1.153-.57l-10.169-1.355,10.169-1.355a2,2,0,0,0,1.153-.57,2,2,0,0,0,.569-1.153Z" transform="translate(-219.596 -66.574)" fill="#812ae9"/>
    <path id="Path_98" data-name="Path 98" d="M343.981-252.665l.8,5.976a1.18,1.18,0,0,0,.335.677,1.178,1.178,0,0,0,.678.335l5.975.8-5.975.8a1.176,1.176,0,0,0-.678.335,1.178,1.178,0,0,0-.335.677l-.8,5.976-.8-5.976a1.177,1.177,0,0,0-.335-.677,1.177,1.177,0,0,0-.677-.335l-5.975-.8,5.975-.8a1.178,1.178,0,0,0,.677-.335,1.18,1.18,0,0,0,.335-.677Z" transform="translate(-212.747 -28.546)" fill="#00fff3"/>
    <path id="Path_99" data-name="Path 99" d="M322.254-297.775l.466,3.5a.689.689,0,0,0,.2.4.689.689,0,0,0,.4.2l3.5.466-3.5.466a.689.689,0,0,0-.4.2.689.689,0,0,0-.2.4l-.466,3.5-.466-3.5a.691.691,0,0,0-.2-.4.69.69,0,0,0-.4-.2l-3.5-.466,3.5-.466a.69.69,0,0,0,.4-.2.692.692,0,0,0,.2-.4Z" transform="translate(-201.04)" fill="#812ae9"/>
  </g>
</svg>
