<svg xmlns="http://www.w3.org/2000/svg" width="150.495" height="142.761" viewBox="0 0 150.495 142.761">
  <g id="Group_29" data-name="Group 29" transform="translate(0 372.709)">
    <path id="Path_64" data-name="Path 64" d="M142.346-229.656l5.572,5.572-15.861,15.861L116.2-224.084l5.572-5.572Z" transform="translate(-71.689 -88.259)" fill="#00fff3"/>
    <path id="Path_65" data-name="Path 65" d="M142.643-199.769l-9.289-16.183h18.577Z" transform="translate(-82.275 -96.714)" fill="#fff"/>
    <path id="Path_66" data-name="Path 66" d="M215.355-169.884a33.9,33.9,0,0,1,22.1-8.15,34.113,34.113,0,0,1,34.1,34.1,34.113,34.113,0,0,1-34.1,34.1,33.9,33.9,0,0,1-22.247-8.278,34.427,34.427,0,0,0,5.041-5.365,26.593,26.593,0,0,0,17.206,6.284,26.751,26.751,0,0,0,26.738-26.738,26.751,26.751,0,0,0-26.738-26.738,26.609,26.609,0,0,0-17.088,6.182A33.856,33.856,0,0,0,215.355-169.884Z" transform="translate(-132.776 -120.108)" fill="#812ae9"/>
    <path id="Path_67" data-name="Path 67" d="M191.191-142.738A26.851,26.851,0,0,1,196.2-137.1a26.6,26.6,0,0,0-4.568,14.944,26.571,26.571,0,0,0,4.486,14.816,26.878,26.878,0,0,1-5.044,5.609,33.925,33.925,0,0,1-6.8-20.425A33.9,33.9,0,0,1,191.191-142.738Z" transform="translate(-113.689 -141.884)" fill="#812ae9"/>
    <path id="Path_68" data-name="Path 68" d="M124.172-118.53a34.025,34.025,0,0,1-22.294,8.278,34.241,34.241,0,0,1-34.224-34.224A34.241,34.241,0,0,1,101.878-178.7,34.029,34.029,0,0,1,124.32-170.3a34.209,34.209,0,0,0-5.077,5.369,26.687,26.687,0,0,0-17.365-6.389A26.851,26.851,0,0,0,75.04-144.477a26.851,26.851,0,0,0,26.838,26.838,26.7,26.7,0,0,0,17.245-6.286A33.743,33.743,0,0,0,124.172-118.53Z" transform="translate(-41.74 -119.696)" fill="#6a0ed6"/>
    <path id="Path_69" data-name="Path 69" d="M220.358-142.683a34.055,34.055,0,0,1,6.772,20.428,34.039,34.039,0,0,1-6.89,20.582,26.806,26.806,0,0,1-5.046-5.638,26.687,26.687,0,0,0,4.549-14.944,26.658,26.658,0,0,0-4.468-14.816A26.838,26.838,0,0,1,220.358-142.683Z" transform="translate(-132.768 -141.918)" fill="#6a0ed6"/>
    <path id="Path_70" data-name="Path 70" d="M207.071-50.336a26.749,26.749,0,0,0,5.046,5.638,33.9,33.9,0,0,1-5.041,5.365,34.446,34.446,0,0,1-5.049-5.394A26.981,26.981,0,0,0,207.071-50.336Z" transform="translate(-124.644 -198.892)" fill="#6a0ed6"/>
    <path id="Path_71" data-name="Path 71" d="M207.415-156.756a34.568,34.568,0,0,1,5.011,5.39,26.924,26.924,0,0,0-5.082,5.612,26.806,26.806,0,0,0-5.006-5.633A33.917,33.917,0,0,1,207.415-156.756Z" transform="translate(-124.835 -133.235)" fill="#812ae9"/>
    <path id="Path_72" data-name="Path 72" d="M152.282-183.174a1.4,1.4,0,0,0-1.4-1.4H136.254a1.4,1.4,0,0,0-1.4,1.4v2.8a1.4,1.4,0,0,0,1.4,1.4h14.628a1.4,1.4,0,0,0,1.4-1.4Z" transform="translate(-83.2 -116.073)" fill="#6a0ed6"/>
    <path id="Path_73" data-name="Path 73" d="M18.253-135.813,20.12-121.8a2.762,2.762,0,0,0,.785,1.588,2.762,2.762,0,0,0,1.588.785l14.013,1.867-14.013,1.867a2.762,2.762,0,0,0-1.588.785,2.762,2.762,0,0,0-.785,1.588L18.253-99.307l-1.867-14.013a2.762,2.762,0,0,0-.785-1.588,2.762,2.762,0,0,0-1.588-.785L0-117.56l14.013-1.867a2.762,2.762,0,0,0,1.588-.785,2.762,2.762,0,0,0,.785-1.588Z" transform="translate(0 -146.156)" fill="#00fff3"/>
    <path id="Path_74" data-name="Path 74" d="M341.595-242.161l1.243,9.33a1.839,1.839,0,0,0,.523,1.058,1.837,1.837,0,0,0,1.058.522l9.33,1.243-9.33,1.243a1.839,1.839,0,0,0-1.058.522,1.839,1.839,0,0,0-.523,1.058l-1.243,9.33-1.243-9.33a1.841,1.841,0,0,0-.523-1.058,1.84,1.84,0,0,0-1.058-.522l-9.33-1.243,9.33-1.243a1.838,1.838,0,0,0,1.058-.522,1.841,1.841,0,0,0,.523-1.058Z" transform="translate(-203.253 -80.544)" fill="#812ae9"/>
    <path id="Path_75" data-name="Path 75" d="M75.732-299.367l1.243,9.33a1.84,1.84,0,0,0,.523,1.058,1.84,1.84,0,0,0,1.058.522l9.33,1.243-9.33,1.243a1.837,1.837,0,0,0-1.058.522,1.84,1.84,0,0,0-.523,1.058l-1.243,9.33-1.243-9.33a1.84,1.84,0,0,0-.523-1.058,1.838,1.838,0,0,0-1.058-.522l-9.33-1.243,9.33-1.243a1.84,1.84,0,0,0,1.058-.522,1.84,1.84,0,0,0,.523-1.058Z" transform="translate(-39.225 -45.249)" fill="#00fff3"/>
    <path id="Path_76" data-name="Path 76" d="M210.851-372.709l2.874,21.566a4.254,4.254,0,0,0,1.208,2.445,4.253,4.253,0,0,0,2.445,1.208l21.566,2.874-21.566,2.874a4.251,4.251,0,0,0-2.445,1.208,4.252,4.252,0,0,0-1.208,2.445l-2.874,21.566-2.874-21.566a4.252,4.252,0,0,0-1.208-2.445,4.251,4.251,0,0,0-2.445-1.208l-21.566-2.874,21.566-2.874a4.253,4.253,0,0,0,2.445-1.208,4.254,4.254,0,0,0,1.208-2.445Z" transform="translate(-112.756)" fill="#00fff3"/>
  </g>
</svg>
