<svg xmlns="http://www.w3.org/2000/svg" width="142.6" height="112.212" viewBox="0 0 142.6 112.212">
  <g id="Group_38" data-name="Group 38" transform="translate(-451 -2204.803)">
    <g id="Group_37" data-name="Group 37" transform="translate(451 2204.803)">
      <path id="Path_125" data-name="Path 125" d="M519.955-651.8l.892,6.7a1.322,1.322,0,0,0,.375.759,1.322,1.322,0,0,0,.759.375l6.7.892-6.7.893a1.319,1.319,0,0,0-.759.375,1.32,1.32,0,0,0-.375.759l-.892,6.7-.892-6.7a1.32,1.32,0,0,0-.375-.759,1.319,1.319,0,0,0-.759-.375l-6.7-.893,6.7-.892a1.322,1.322,0,0,0,.759-.375,1.322,1.322,0,0,0,.375-.759Z" transform="translate(-419.884 651.803)" fill="#812ae9"/>
      <path id="Path_126" data-name="Path 126" d="M681.955-437.8l.892,6.7a1.32,1.32,0,0,0,.375.759,1.321,1.321,0,0,0,.759.375l6.7.892-6.7.893a1.319,1.319,0,0,0-.759.375,1.319,1.319,0,0,0-.375.759l-.892,6.7-.892-6.7a1.32,1.32,0,0,0-.375-.759,1.319,1.319,0,0,0-.759-.375l-6.7-.893,6.7-.892a1.322,1.322,0,0,0,.759-.375,1.321,1.321,0,0,0,.375-.759Z" transform="translate(-548.079 482.458)" fill="#00fff3"/>
      <path id="Path_127" data-name="Path 127" d="M675.955-607.8l.893,6.7a1.32,1.32,0,0,0,.375.759,1.322,1.322,0,0,0,.759.375l6.7.893-6.7.892a1.319,1.319,0,0,0-.759.375,1.319,1.319,0,0,0-.375.759l-.893,6.7-.892-6.7a1.321,1.321,0,0,0-.375-.759,1.32,1.32,0,0,0-.759-.375l-6.7-.892,6.7-.893a1.322,1.322,0,0,0,.759-.375,1.323,1.323,0,0,0,.375-.759Z" transform="translate(-543.331 616.984)" fill="#00fff3"/>
      <path id="Path_128" data-name="Path 128" d="M129.305-477.762l33.838,58.609-80.91,17.285a11.818,11.818,0,0,1-8.353-14.467Z" transform="translate(-73.476 514.079)" fill="#812ae9"/>
      <path id="Path_129" data-name="Path 129" d="M334.433-479.1c4.337-2.5,15.439,8.594,24.777,24.768s13.4,31.338,9.061,33.842-15.439-8.594-24.777-24.768S330.1-476.6,334.433-479.1Z" transform="translate(-278.604 515.416)" fill="#6a0ed6"/>
      <path id="Path_130" data-name="Path 130" d="M245.686-411.055,255-421.376c1.6,7.146,5.585,16.828,11.374,26.856s12.181,18.321,17.571,23.278l-13.191,2.818a112.369,112.369,0,0,1-15.086-20.831A116.483,116.483,0,0,1,245.686-411.055Z" transform="translate(-209.751 469.459)" fill="#00fff3"/>
      <path id="Path_131" data-name="Path 131" d="M168.928-315.085l6.549-7.258c1.124,5.025,3.928,11.834,8,18.886s8.566,12.884,12.356,16.37l-9.276,1.982a79.027,79.027,0,0,1-10.609-14.649A81.908,81.908,0,0,1,168.928-315.085Z" transform="translate(-149.01 391.091)" fill="#00fff3"/>
      <path id="Path_132" data-name="Path 132" d="M103.55-231.721l4.185-4.639a46.25,46.25,0,0,0,5.112,12.07,46.245,46.245,0,0,0,7.9,10.462l-5.929,1.267a50.512,50.512,0,0,1-6.781-9.363A52.355,52.355,0,0,1,103.55-231.721Z" transform="translate(-97.274 323.05)" fill="#00fff3"/>
      <path id="Path_133" data-name="Path 133" d="M390.987-504.23a5.467,5.467,0,0,0-4.133-.65,5.469,5.469,0,0,0-4.033,6.6,5.467,5.467,0,0,0,2.463,3.382l-2.851,4.664A10.934,10.934,0,0,1,377.506-497a10.939,10.939,0,0,1,8.065-13.192,10.871,10.871,0,0,1,8.232,1.357Zm0,0,2.817-4.608a5.466,5.466,0,0,0,4.133.65,5.469,5.469,0,0,0,4.033-6.6,5.467,5.467,0,0,0-2.463-3.383l2.851-4.664a10.934,10.934,0,0,1,4.926,6.765,10.939,10.939,0,0,1-8.065,13.192A10.87,10.87,0,0,1,390.987-504.23Z" transform="translate(-313.822 549.743)" fill="#00fff3"/>
      <path id="Path_134" data-name="Path 134" d="M534.25-346.563a3.842,3.842,0,0,1-1.764,2.353,3.844,3.844,0,0,1-5.265-1.347,3.843,3.843,0,0,1-.417-2.911l-3.723-.952a7.686,7.686,0,0,0,.834,5.823,7.689,7.689,0,0,0,10.53,2.694,7.641,7.641,0,0,0,3.483-4.719Zm0,0,3.678.941a3.843,3.843,0,0,1,1.764-2.354,3.844,3.844,0,0,1,5.265,1.347,3.843,3.843,0,0,1,.417,2.911l3.723.952a7.686,7.686,0,0,0-.834-5.823,7.689,7.689,0,0,0-10.53-2.694A7.641,7.641,0,0,0,534.25-346.563Z" transform="translate(-429.073 414.841)" fill="#00fff3"/>
      <path id="Path_135" data-name="Path 135" d="M564.465-491.691a5.467,5.467,0,0,1,.866-4.093,5.469,5.469,0,0,1,7.6-1.416,5.467,5.467,0,0,1,2.282,3.507l5.374-1a10.933,10.933,0,0,0-4.564-7.014,10.939,10.939,0,0,0-15.2,2.831,10.871,10.871,0,0,0-1.668,8.175Zm0,0-5.309.989a5.466,5.466,0,0,1-.866,4.093,5.469,5.469,0,0,1-7.6,1.416,5.467,5.467,0,0,1-2.282-3.507l-5.374,1a10.934,10.934,0,0,0,4.564,7.014,10.939,10.939,0,0,0,15.2-2.831A10.871,10.871,0,0,0,564.465-491.691Z" transform="translate(-445.051 534.545)" fill="#812ae9"/>
      <path id="Path_136" data-name="Path 136" d="M379.852-641.521l1.566,11.749a2.316,2.316,0,0,0,.658,1.332,2.316,2.316,0,0,0,1.332.658l11.749,1.565-11.749,1.565a2.317,2.317,0,0,0-1.332.658,2.317,2.317,0,0,0-.658,1.332l-1.566,11.749-1.565-11.749a2.316,2.316,0,0,0-.658-1.332,2.316,2.316,0,0,0-1.332-.658l-11.749-1.565,11.749-1.565a2.315,2.315,0,0,0,1.332-.658,2.315,2.315,0,0,0,.658-1.332Z" transform="translate(-303.81 643.667)" fill="#00fff3"/>
    </g>
  </g>
</svg>
