<svg xmlns="http://www.w3.org/2000/svg" width="140.6" height="139.932" viewBox="0 0 140.6 139.932">
  <g id="Group_39" data-name="Group 39" transform="translate(0 607.323)">
    <path id="Path_137" data-name="Path 137" d="M120.2-42.877a2.622,2.622,0,0,0-2.621-2.621H2.621A2.622,2.622,0,0,0,0-42.877v5.242a2.622,2.622,0,0,0,2.621,2.621H117.579a2.622,2.622,0,0,0,2.621-2.621Z" transform="translate(0 -432.376)" fill="#00fff3"/>
    <path id="Path_138" data-name="Path 138" d="M239.772-494l.645,4.842a.954.954,0,0,0,.271.549.956.956,0,0,0,.549.271l4.842.645-4.842.645a.954.954,0,0,0-.549.271.954.954,0,0,0-.271.549l-.645,4.843-.645-4.843a.954.954,0,0,0-.271-.549.954.954,0,0,0-.549-.271l-4.842-.645,4.842-.645a.955.955,0,0,0,.549-.271.954.954,0,0,0,.271-.549Z" transform="translate(-179.672 -87.209)" fill="#812ae9"/>
    <path id="Path_139" data-name="Path 139" d="M65.864-397.255l.79,5.93a1.169,1.169,0,0,0,.332.672,1.17,1.17,0,0,0,.672.332l5.93.79-5.93.79a1.168,1.168,0,0,0-.672.332,1.169,1.169,0,0,0-.332.672l-.79,5.93-.79-5.93a1.169,1.169,0,0,0-.332-.672,1.168,1.168,0,0,0-.672-.332l-5.93-.79,5.93-.79a1.17,1.17,0,0,0,.672-.332,1.169,1.169,0,0,0,.332-.672Z" transform="translate(-44.744 -161.667)" fill="#812ae9"/>
    <path id="Path_140" data-name="Path 140" d="M208.582-607.323l.79,5.93a1.169,1.169,0,0,0,.332.672,1.169,1.169,0,0,0,.672.332l5.93.79-5.93.79a1.168,1.168,0,0,0-.672.332,1.168,1.168,0,0,0-.332.672l-.79,5.93-.79-5.93a1.169,1.169,0,0,0-.332-.672,1.169,1.169,0,0,0-.672-.332l-5.93-.79,5.93-.79a1.169,1.169,0,0,0,.672-.332,1.17,1.17,0,0,0,.332-.672Z" transform="translate(-154.579)" fill="#00fff3"/>
    <path id="Path_141" data-name="Path 141" d="M99.539-494l.79,5.93a1.169,1.169,0,0,0,.332.672,1.169,1.169,0,0,0,.672.332l5.93.79-5.93.79a1.168,1.168,0,0,0-.672.332,1.169,1.169,0,0,0-.332.672l-.79,5.93-.79-5.93a1.17,1.17,0,0,0-.332-.672,1.169,1.169,0,0,0-.672-.332l-5.93-.79,5.93-.79a1.17,1.17,0,0,0,.672-.332,1.17,1.17,0,0,0,.332-.672Z" transform="translate(-70.66 -87.209)" fill="#00fff3"/>
    <path id="Path_142" data-name="Path 142" d="M380.632-542.954l1.386,10.4a2.051,2.051,0,0,0,.582,1.179,2.05,2.05,0,0,0,1.179.582l10.4,1.386-10.4,1.386a2.052,2.052,0,0,0-1.179.582,2.052,2.052,0,0,0-.582,1.179l-1.386,10.4-1.386-10.4a2.051,2.051,0,0,0-.582-1.179,2.052,2.052,0,0,0-1.179-.582l-10.4-1.386,10.4-1.386a2.05,2.05,0,0,0,1.179-.582,2.05,2.05,0,0,0,.582-1.179Z" transform="translate(-282.504 -49.538)" fill="#00fff3"/>
    <path id="Path_143" data-name="Path 143" d="M131.1-184.117h-.019V-225.66H193.9v41.543h-.019a1.4,1.4,0,0,1,.019.23c0,3.607-14.072,6.535-31.406,6.535s-31.406-2.928-31.406-6.535A1.4,1.4,0,0,1,131.1-184.117Z" transform="translate(-100.881 -293.725)" fill="#812ae9"/>
    <path id="Path_144" data-name="Path 144" d="M142.538-227.781v47.306c-6.993-1.212-11.454-3.046-11.454-5.1a1.434,1.434,0,0,1,.019-.232h-.019v-41.976Z" transform="translate(-100.881 -292.092)" fill="#6a0ed6"/>
    <path id="Path_145" data-name="Path 145" d="M193.9-221.21v.836h-.019a1.407,1.407,0,0,1,.019.23c0,3.607-14.072,6.535-31.406,6.535s-31.406-2.928-31.406-6.535a1.407,1.407,0,0,1,.019-.23h-.019v-.836Z" transform="translate(-100.881 -297.149)" fill="#6a0ed6"/>
    <path id="Path_146" data-name="Path 146" d="M118.988-302.19c24.521,0,44.43,4.825,44.43,10.768s-19.908,10.767-44.43,10.767-44.43-4.825-44.43-10.767S94.466-302.19,118.988-302.19Z" transform="translate(-57.379 -234.828)" fill="#812ae9"/>
    <path id="Path_147" data-name="Path 147" d="M152.248-281.8c18.761,0,33.992,2.789,33.992,6.223s-15.231,6.223-33.992,6.223-33.992-2.789-33.992-6.223S133.487-281.8,152.248-281.8Z" transform="translate(-91.009 -250.519)" fill="#6a0ed6"/>
    <path id="Path_148" data-name="Path 148" d="M168.992-400.141c-4.912-12.222-11.02-29.058-12.643-39.395a10.073,10.073,0,0,1,8.384-11.509,10.073,10.073,0,0,1,11.508,8.384c1.624,10.337.711,29.825-.217,42.963A47.763,47.763,0,0,1,168.992-400.141Z" transform="translate(-120.23 -120.176)" fill="#00fff3"/>
    <path id="Path_149" data-name="Path 149" d="M205.138-315.3c1.566,5.122,2.691,5.136,2.44,0-.365-7.487-1.015-17.841-2.007-23.513a3.25,3.25,0,0,0-3.76-2.64,3.251,3.251,0,0,0-2.641,3.76C200.144-332.127,202.956-322.432,205.138-315.3Z" transform="translate(-153.242 -204.574)" fill="#812ae9"/>
    <path id="Path_150" data-name="Path 150" d="M297.063-400.141c4.912-12.222,11.019-29.058,12.643-39.395a10.073,10.073,0,0,0-8.384-11.509,10.073,10.073,0,0,0-11.508,8.384c-1.624,10.337-.711,29.825.217,42.963A47.764,47.764,0,0,0,297.063-400.141Z" transform="translate(-222.351 -120.176)" fill="#00fff3"/>
    <path id="Path_151" data-name="Path 151" d="M302.389-315.3c-1.566,5.122-2.691,5.136-2.441,0,.365-7.487,1.016-17.841,2.007-23.513a3.25,3.25,0,0,1,3.76-2.64,3.25,3.25,0,0,1,2.64,3.76C307.383-332.127,304.57-322.432,302.389-315.3Z" transform="translate(-230.811 -204.574)" fill="#812ae9"/>
    <path id="Path_152" data-name="Path 152" d="M450.251-485.28a1.038,1.038,0,0,0-1.421-.368L404.425-459.49a1.039,1.039,0,0,0-.367,1.421l1.054,1.789a1.039,1.039,0,0,0,1.421.368l44.405-26.158a1.038,1.038,0,0,0,.368-1.421Z" transform="translate(-310.849 -93.53)" fill="#6a0ed6"/>
    <path id="Path_153" data-name="Path 153" d="M434.6-409.1a.54.54,0,0,0-.739-.191l-.93.548a.54.54,0,0,0-.191.739L437.1-400.6a.54.54,0,0,0,.739.191l.93-.548a.54.54,0,0,0,.191-.739Z" transform="translate(-332.977 -152.343)" fill="#fff"/>
  </g>
</svg>
